<?xml version="1.0" standalone="no"?>
<!DOCTYPE svg PUBLIC "-//W3C//DTD SVG 20010904//EN"
 "http://www.w3.org/TR/2001/REC-SVG-20010904/DTD/svg10.dtd">
<svg version="1.0" xmlns="http://www.w3.org/2000/svg"
 width="1022.000000pt" height="1022.000000pt" viewBox="0 0 1022.000000 1022.000000"
 preserveAspectRatio="xMidYMid meet">
<metadata>
Created by potrace 1.11, written by Peter Selinger 2001-2013
</metadata>
<g transform="translate(0.000000,1022.000000) scale(0.100000,-0.100000)"
fill="#000000" stroke="none">
<path d="M4685 10209 c-1498 -130 -2851 -899 -3730 -2120 -514 -713 -822
-1515 -931 -2419 -22 -181 -30 -749 -15 -948 119 -1481 851 -2814 2036 -3704
730 -549 1568 -881 2505 -994 181 -22 749 -30 948 -15 1454 116 2759 821 3658
1976 547 702 909 1566 1023 2445 33 253 41 380 41 680 0 157 -5 339 -10 405
-104 1231 -624 2352 -1491 3216 -864 861 -1979 1375 -3204 1479 -142 12 -687
11 -830 -1z m755 -219 c191 -14 383 -37 540 -66 2029 -369 3613 -1976 3955
-4011 48 -288 59 -434 60 -793 0 -341 -7 -453 -46 -720 -191 -1316 -920 -2502
-2016 -3281 -685 -487 -1458 -778 -2325 -876 -216 -24 -780 -24 -996 0 -1155
131 -2158 610 -2962 1416 -748 749 -1228 1705 -1379 2741 -38 262 -46 380 -46
710 0 330 8 448 46 710 200 1378 991 2613 2164 3383 694 455 1486 723 2320
786 160 12 529 13 685 1z"/>
<path d="M4820 9624 c-19 -2 -91 -9 -160 -15 -404 -35 -900 -160 -1289 -324
-593 -250 -1155 -643 -1577 -1103 -703 -767 -1114 -1705 -1194 -2726 -22 -288
-7 -722 35 -1006 219 -1464 1135 -2724 2465 -3390 538 -269 1091 -417 1744
-465 84 -7 89 -6 82 11 -4 11 -28 73 -54 139 -27 71 -76 171 -121 245 -75 124
-237 356 -266 380 -8 7 -15 19 -15 26 0 8 -4 14 -9 14 -4 0 -37 35 -72 77
-103 126 -231 254 -439 441 -452 407 -593 589 -699 904 -36 106 -38 110 -273
432 -131 179 -238 330 -238 335 0 5 -4 11 -8 13 -13 5 -129 176 -221 325 -290
474 -465 1008 -522 1587 -14 147 -6 493 16 651 104 754 414 1355 980 1896 190
181 480 388 728 518 76 40 140 72 142 70 2 -2 -39 -49 -91 -104 -352 -372
-446 -767 -291 -1220 90 -264 118 -319 472 -920 131 -222 291 -535 339 -663
162 -428 202 -976 101 -1372 -73 -286 -229 -589 -423 -820 -139 -166 -412
-416 -607 -557 -29 -21 -29 -22 -16 -60 32 -94 115 -246 179 -329 81 -105 141
-161 272 -255 52 -37 122 -88 155 -113 33 -25 63 -46 68 -46 4 0 7 46 7 103 0
138 17 380 36 501 37 249 121 443 262 604 l55 64 79 276 c154 539 211 703 334
957 164 338 374 605 654 828 299 237 742 407 1170 448 191 18 511 6 680 -25
554 -102 1055 -363 1528 -797 73 -67 131 -123 128 -126 -2 -2 -58 12 -124 31
-303 90 -549 67 -741 -68 -197 -139 -310 -316 -541 -846 -256 -590 -383 -792
-624 -993 -202 -169 -506 -309 -764 -353 -128 -21 -400 -29 -502 -15 -420 59
-799 234 -1111 512 l-76 68 -55 -57 c-118 -120 -172 -294 -172 -552 0 -164 7
-229 56 -542 l30 -197 114 -101 c203 -181 461 -460 703 -759 109 -135 392
-507 410 -539 6 -11 25 -12 107 -2 388 46 835 164 1193 315 591 249 1151 640
1573 1098 681 740 1082 1629 1190 2632 17 159 17 731 0 890 -132 1234 -724
2319 -1686 3091 -657 527 -1455 858 -2316 960 -127 15 -700 28 -790 18z"/>
<path d="M2642 7157 c-177 -374 -231 -769 -171 -1252 51 -417 235 -1005 562
-1805 90 -220 195 -543 198 -612 1 -17 3 -18 6 -6 6 25 -41 279 -78 418 -17
63 -89 293 -159 510 -282 867 -363 1173 -424 1605 -64 457 -29 874 99 1181 25
59 44 109 42 110 -1 2 -35 -65 -75 -149z"/>
<path d="M6768 5664 c-360 -50 -706 -206 -1018 -460 -122 -99 -299 -273 -411
-404 -155 -181 -387 -542 -508 -790 -22 -47 -35 -77 -29 -66 7 10 57 86 110
168 536 820 1241 1352 1978 1492 216 42 501 45 685 10 17 -4 27 -3 24 0 -4 4
-89 20 -190 36 -247 39 -432 43 -641 14z"/>
<path d="M3241 3424 c0 -11 3 -14 6 -6 3 7 2 16 -1 19 -3 4 -6 -2 -5 -13z"/>
</g>
</svg>
